<svg width="32" height="32" viewBox="0 0 32 32" fill="none" xmlns="http://www.w3.org/2000/svg">
<path d="M16 0C24.8366 0 32 7.16344 32 16C32 24.8366 24.8366 32 16 32C7.16344 32 0 24.8366 0 16C0 7.16344 7.16344 0 16 0ZM14.9941 6.51074C14.9907 6.63436 14.8831 7.80426 14.8076 8.21289C14.1847 11.5849 11.089 14.3889 7.72949 14.8662C7.31595 14.9246 6.50781 15.0166 6.50781 15.0166V16.9482H14.8711L14.999 17.0771V25.4473L16.8779 25.4375C17.0512 23.3824 17.6058 21.5003 18.9492 19.9121C20.2909 18.3274 22.1062 17.3191 24.1582 16.9688C24.3975 16.9294 25.4595 16.7359 25.4678 16.7344L25.4658 16.7324L25.4863 14.8867H17.1016L16.9727 14.7578V6.5166L14.9941 6.51074Z" fill="#FF5500"/>
</svg>
